<svg xmlns="http://www.w3.org/2000/svg" version="1.1" xmlns:xlink="http://www.w3.org/1999/xlink" xmlns:svgjs="http://svgjs.dev/svgjs" width="1000" height="1000" viewBox="0 0 1000 1000"><rect width="1000" height="1000" fill="#ffffff"></rect><g transform="matrix(0.7,0,0,0.7,149.57575757575756,282.1265587044535)"><svg viewBox="0 0 396 247" data-background-color="#ffffff" preserveAspectRatio="xMidYMid meet" height="623" width="1000" xmlns="http://www.w3.org/2000/svg" xmlns:xlink="http://www.w3.org/1999/xlink"><g id="tight-bounds" transform="matrix(1,0,0,1,0.2400000000000091,-0.09999999999999432)"><svg viewBox="0 0 395.52 247.2" height="247.2" width="395.52"><g><svg></svg></g><g><svg viewBox="0 0 395.52 247.2" height="247.2" width="395.52"><g mask="url(&quot;#11436bc5-85d2-4831-a14b-1b887ec4ded8&quot;)"><g><path xmlns="http://www.w3.org/2000/svg" d="M243.774 118.898v0c-11.196 0-21.608-0.896-31.236-2.687v0c3.135 9.852 9.74 32.132 19.817 66.838v0c3.135 10.076 8.061 20.264 14.778 30.564v0c9.18 13.211 17.689 19.816 25.526 19.816v0c9.404 0 17.241-9.516 23.511-28.549v0c1.12-4.478 2.306-6.717 3.56-6.717 1.209 0 2.105 1.276 2.687 3.829 0.537 2.597 0.806 4.344 0.806 5.24v0c0 5.598-3.135 12.763-9.404 21.495v0c-8.285 12.315-17.353 18.473-27.206 18.473-9.852 0-18.921-4.926-27.205-14.778-8.285-9.852-16.39-27.832-24.317-53.941-7.971-26.063-11.957-42.678-11.957-49.843v0c0-1.12 0.112-2.015 0.336-2.687v0c-26.87 35.602-46.126 59.113-57.77 70.533v0c-25.974 25.302-52.508 37.953-79.601 37.953v0c-19.033 0-28.549-7.165-28.549-21.496v0c0-7.165 2.239-15.069 6.718-23.712 4.478-8.598 9.964-16.144 16.457-22.638 6.493-6.493 12.203-9.74 17.13-9.74v0c0.896 0 1.343 0.224 1.343 0.672v0c0 1.12-2.799 3.918-8.397 8.397-5.598 4.478-10.972 10.793-16.121 18.943-5.15 8.195-7.725 15.652-7.725 22.369v0c0 11.867 7.949 17.801 23.846 17.801v0c29.78 0 70.757-34.93 122.929-104.792v0c2.911-3.807 5.374-6.493 7.389-8.061v0l-5.374-2.015c-2.911 1.12-5.262 1.679-7.053 1.68v0c-4.702 0-7.053-1.903-7.054-5.71v0c0-5.15 3.471-8.509 10.412-10.076v0c0.896-0.224 1.679-0.336 2.351-0.336v0c4.03 0 8.733 2.015 14.107 6.045v0c19.704-21.943 29.78-33.139 30.228-33.586v0c16.346-16.793 27.362-25.19 33.05-25.191 5.732 0 8.598 2.463 8.598 7.389v0c0 2.239-0.493 4.366-1.478 6.382-1.03 2.015-2.217 3.023-3.56 3.023v0c-1.343 0.448-2.015-0.224-2.015-2.015v0c0-0.896 0.672-2.239 2.015-4.031v0c0.224-3.135-0.784-4.702-3.023-4.702v0c-7.165 0-24.518 19.033-52.06 57.098v0c6.717 0.448 12.315 0.672 16.794 0.672v0c51.948 0 84.415-13.435 97.402-40.305v0c2.687-5.822 4.03-11.196 4.03-16.122v0c0-9.852-4.478-18.361-13.434-25.526v0c-14.33-11.643-37.617-17.465-69.861-17.465-32.243 0-65.159 8.173-98.746 24.519v0c-40.752 19.928-61.128 43.327-61.128 70.196v0c0 8.733 5.486 13.099 16.457 13.099 10.972 0 22.615-4.03 34.931-12.091 12.315-8.061 20.6-16.01 24.854-23.847v0c1.567-2.911 3.09-4.366 4.568-4.366 1.433 0 1.814 0.896 1.142 2.687v0c-4.254 12.539-13.703 23.22-28.347 32.042-14.689 8.867-29.982 13.3-45.88 13.3-15.898 0-23.847-5.038-23.847-15.114v0c0-0.672 0-1.455 0-2.351v0c3.359-29.333 21.339-54.254 53.941-74.765 32.557-20.466 71.787-30.698 117.688-30.698v0c42.767 0 73.108 7.389 91.021 22.167v0c10.748 8.957 16.122 19.48 16.122 31.572v0c0 5.15-1.232 10.748-3.695 16.794v0c-6.941 16.346-21.16 28.482-42.655 36.408-21.496 7.971-44.111 11.957-67.846 11.957z" fill="#000000" fill-rule="nonzero" stroke="none" stroke-width="1" stroke-linecap="butt" stroke-linejoin="miter" stroke-miterlimit="10" stroke-dasharray="" stroke-dashoffset="0" font-family="none" font-weight="none" font-size="none" text-anchor="none" style="mix-blend-mode: normal" data-fill-palette-color="tertiary"></path></g></g><g transform="matrix(1,0,0,1,35.99961472050296,37.08)"><svg viewBox="0 0 323.52077055899406 173.04" height="173.04" width="323.52077055899406"><g><svg viewBox="0 0 323.52077055899406 173.04" height="173.04" width="323.52077055899406"><g><svg viewBox="0 0 395.52 211.5498818877838" height="173.04" width="323.52077055899406"><g><svg viewBox="0 0 395.52 211.5498818877838" height="211.5498818877838" width="395.52"><g id="textblocktransform"><svg viewBox="0 0 395.52 211.5498818877838" height="211.5498818877838" width="395.52" id="textblock"><g><svg viewBox="0 0 395.52 158.8922248918789" height="158.8922248918789" width="395.52"><g transform="matrix(1,0,0,1,0,0)"><svg width="395.52" viewBox="-5.099999904632568 -34.20000076293945 105.04000091552734 42.79999923706055" height="158.8922248918789" data-palette-color="#ed2647"><path d="M28.6-13.5L28.6-13.5Q26.1-13.5 23.95-13.9L23.95-13.9Q24.65-11.7 26.9-3.95L26.9-3.95Q27.6-1.7 29.1 0.6L29.1 0.6Q31.15 3.55 32.9 3.55L32.9 3.55Q35 3.55 36.4-0.7L36.4-0.7Q36.65-1.7 36.93-1.7 37.2-1.7 37.33-1.13 37.45-0.55 37.45-0.35L37.45-0.35Q37.45 0.9 36.05 2.85L36.05 2.85Q34.2 5.6 32 5.6 29.8 5.6 27.95 3.4 26.1 1.2 24.33-4.63 22.55-10.45 22.55-12.05L22.55-12.05Q22.55-12.3 22.6-12.45L22.6-12.45Q16.6-4.5 14-1.95L14-1.95Q8.2 3.7 2.15 3.7L2.15 3.7Q-2.1 3.7-2.1 0.5L-2.1 0.5Q-2.1-1.1-1.1-3.03-0.1-4.95 1.35-6.4 2.8-7.85 3.9-7.85L3.9-7.85Q4.1-7.85 4.1-7.75L4.1-7.75Q4.1-7.5 2.85-6.5 1.6-5.5 0.45-3.68-0.7-1.85-0.7-0.35L-0.7-0.35Q-0.7 2.3 2.85 2.3L2.85 2.3Q9.5 2.3 21.15-13.3L21.15-13.3Q21.8-14.15 22.25-14.5L22.25-14.5 21.45-14.8Q20.8-14.55 20.4-14.55L20.4-14.55Q19.35-14.55 19.35-15.4L19.35-15.4Q19.35-16.55 20.9-16.9L20.9-16.9Q21.1-16.95 21.25-16.95L21.25-16.95Q22.15-16.95 23.35-16.05L23.35-16.05Q27.75-20.95 27.85-21.05L27.85-21.05Q31.5-24.8 32.77-24.8 34.05-24.8 34.05-23.7L34.05-23.7Q34.05-23.2 33.83-22.75 33.6-22.3 33.3-22.3L33.3-22.3Q33-22.2 33-22.6L33-22.6Q33-22.8 33.3-23.2L33.3-23.2Q33.35-23.9 32.85-23.9L32.85-23.9Q31.25-23.9 25.1-15.4L25.1-15.4Q26.6-15.3 27.6-15.3L27.6-15.3Q39.2-15.3 42.1-21.3L42.1-21.3Q42.7-22.6 42.7-23.7L42.7-23.7Q42.7-25.9 40.7-27.5L40.7-27.5Q37.5-30.1 30.3-30.1 23.1-30.1 15.6-26.45L15.6-26.45Q6.5-22 6.5-16L6.5-16Q6.5-14.05 8.95-14.05 11.4-14.05 14.15-15.85 16.9-17.65 17.85-19.4L17.85-19.4Q18.2-20.05 18.53-20.05 18.85-20.05 18.7-19.65L18.7-19.65Q17.75-16.85 14.48-14.88 11.2-12.9 7.65-12.9 4.1-12.9 4.1-15.15L4.1-15.15Q4.1-15.3 4.1-15.5L4.1-15.5Q4.85-22.05 12.13-26.63 19.4-31.2 29.65-31.2L29.65-31.2Q39.2-31.2 43.2-27.9L43.2-27.9Q45.6-25.9 45.6-23.2L45.6-23.2Q45.6-22.05 45.05-20.7L45.05-20.7Q43.5-17.05 38.7-15.28 33.9-13.5 28.6-13.5ZM48.45-20.4Q49.2-20.4 49.87-19.93 50.55-19.45 50.55-18.8 50.55-18.15 49.92-17.68 49.3-17.2 48.55-17.2 47.8-17.2 47.17-17.75 46.55-18.3 46.55-19L46.55-19Q46.55-20.4 48.45-20.4L48.45-20.4ZM39.4 0.55L39.4 0.55Q36.85 0.55 36.85-2.75L36.85-2.75Q36.85-5.45 39.8-10.23 42.75-15 44.55-15.05L44.55-15.05Q45.05-15.05 45.67-14.65 46.3-14.25 46.3-13.85L46.3-13.85Q46.05-13.5 45.7-13.08 45.35-12.65 44.95-12.15 44.55-11.65 43.85-10.73 43.15-9.8 42.5-8.95L42.5-8.95Q38.75-4.1 38.75-2.27 38.75-0.45 40-0.45L40-0.45Q41.05-0.45 42.85-1.6L42.85-1.6Q47.05-4.2 49.5-7.3L49.5-7.3Q50.4-8.45 50.72-8.45 51.05-8.45 51.05-8.05 51.05-7.65 49.9-6.45 48.75-5.25 48.07-4.55 47.4-3.85 47.15-3.63 46.9-3.4 46.22-2.78 45.55-2.15 45.2-1.9 44.85-1.65 44.2-1.15 43.55-0.65 43.05-0.43 42.55-0.2 41.9 0.1L41.9 0.1Q40.85 0.55 39.4 0.55ZM61.95-16.1L61.95-16.1 69.15-16.2Q69.3-16.1 69.3-16.05L69.3-16.05Q69.3-15.6 63.07-14.8 56.85-14 56.35-13.85L56.35-13.85Q55.4-13 52.85-8.78 50.3-4.55 50.3-2.6L50.3-2.6Q50.3-0.75 52.85-0.75L52.85-0.75Q54.05-0.75 56-1.5 57.95-2.25 59-2.9L59-2.9Q61.8-4.65 65-8.05L65-8.05Q65.7-8.75 65.95-8.75L65.95-8.75Q66.1-8.75 66.1-8.45 66.1-8.15 65.35-7.25L65.35-7.25Q62.75-4.05 59.5-2.1L59.5-2.1Q55.6 0.3 52.05 0.3L52.05 0.3Q50.5 0.3 49.52-0.38 48.55-1.05 48.55-3.1 48.55-5.15 50.35-8.72 52.15-12.3 53.1-14.05L53.1-14.05Q52.4-13.9 51.9-13.9L51.9-13.9Q50.45-13.9 50.45-15.05L50.45-15.05Q50.45-15.9 51.65-16.25L51.65-16.25Q51.8-16.25 52.1-16.3L52.1-16.3 55-16.3Q55.9-17.45 57.05-18.95L57.05-18.95Q58.45-20.75 58.95-20.75 59.45-20.75 60.2-20.35 60.95-19.95 60.95-19.4 60.95-18.85 58.55-16.15L58.55-16.15Q59.85-16.1 61.95-16.1ZM74.59-20.4Q75.34-20.4 76.02-19.93 76.69-19.45 76.69-18.8 76.69-18.15 76.07-17.68 75.44-17.2 74.69-17.2 73.94-17.2 73.32-17.75 72.69-18.3 72.69-19L72.69-19Q72.69-20.4 74.59-20.4L74.59-20.4ZM65.54 0.55L65.54 0.55Q62.99 0.55 62.99-2.75L62.99-2.75Q62.99-5.45 65.94-10.23 68.89-15 70.69-15.05L70.69-15.05Q71.19-15.05 71.82-14.65 72.44-14.25 72.44-13.85L72.44-13.85Q72.19-13.5 71.84-13.08 71.49-12.65 71.09-12.15 70.69-11.65 69.99-10.73 69.29-9.8 68.64-8.95L68.64-8.95Q64.89-4.1 64.89-2.27 64.89-0.45 66.14-0.45L66.14-0.45Q67.19-0.45 68.99-1.6L68.99-1.6Q73.19-4.2 75.64-7.3L75.64-7.3Q76.54-8.45 76.87-8.45 77.19-8.45 77.19-8.05 77.19-7.65 76.04-6.45 74.89-5.25 74.22-4.55 73.54-3.85 73.29-3.63 73.04-3.4 72.37-2.78 71.69-2.15 71.34-1.9 70.99-1.65 70.34-1.15 69.69-0.65 69.19-0.43 68.69-0.2 68.04 0.1L68.04 0.1Q66.99 0.55 65.54 0.55ZM85.29 0.6L85.29 0.6Q81.34 0.6 78.59-5.65L78.59-5.65Q77.89-4.6 75.44 0.25L75.44 0.25Q73.64-0.45 73.64-1.65L73.64-1.65Q73.64-3.8 80.09-13.45 86.54-23.1 88.94-24.8L88.94-24.8Q89.14-24.95 89.74-24.95L89.74-24.95Q91.29-24.95 91.29-24.15L91.29-24.15Q91.29-23.75 87.82-19.65 84.34-15.55 83.94-14.7L83.94-14.7Q88.49-17.05 91.19-17.05L91.19-17.05Q92.74-17.05 93.84-15.8L93.84-15.8Q94.89-14.75 94.89-13.65L94.89-13.65Q94.89-13.5 94.89-13.35L94.89-13.35Q94.49-10.5 90.89-8.65L90.89-8.65Q87.99-7.1 85.49-7.1 82.99-7.1 81.99-7.75L81.99-7.75Q81.69-7.8 81.52-7.6 81.34-7.4 81.44-7.1L81.44-7.1Q82.84-0.9 86.09-0.9L86.09-0.9Q87.79-0.9 90.47-2.8 93.14-4.7 96.04-8.15L96.04-8.15Q96.39-8.5 96.67-8.5 96.94-8.5 96.94-8.22 96.94-7.95 96.59-7.45L96.59-7.45Q93.89-4.15 91.49-2.25L91.49-2.25Q87.84 0.6 85.29 0.6ZM92.49-14.7L92.49-14.7Q92.49-15.1 92.04-15.5 91.59-15.9 91.09-15.9L91.09-15.9Q88.39-15.9 84.62-13.65 80.84-11.4 79.99-8.55L79.99-8.55Q80.44-8.55 82.39-8.4L82.39-8.4Q84.64-8.4 88.29-10.25L88.29-10.25Q92.49-12.35 92.49-14.7Z" opacity="1" transform="matrix(1,0,0,1,0,0)" fill="#000000" class="undefined-text-0" data-fill-palette-color="primary" id="text-0"></path></svg></g></svg></g><g transform="matrix(1,0,0,1,2.5,179.30494633026427)"><svg viewBox="0 0 390.52 32.24493555751952" height="32.24493555751952" width="390.52"><g transform="matrix(1,0,0,1,0,0)"><svg width="390.52" viewBox="-1.0499999523162842 -40.9900016784668 531.3399658203125 44.80000305175781" height="32.24493555751952" data-palette-color="#ed2647"><path d="M22.46-26.95Q22.46-29.1 21.68-30.18 20.9-31.25 19.96-31.82 19.02-32.4 17.9-32.7 16.77-33.01 15.65-33.01L15.65-33.01Q13.79-33.01 12.4-32.58 11.01-32.15 10.1-31.42 9.18-30.69 8.72-29.71 8.25-28.74 8.25-27.66L8.25-27.66Q8.25-26.05 8.83-25.06 9.4-24.07 10.28-23.47 11.16-22.88 12.22-22.53 13.28-22.19 14.26-21.85L14.26-21.85 19.19-20.24Q21.41-19.53 23.11-18.63 24.8-17.72 25.95-16.49 27.1-15.26 27.7-13.65 28.3-12.04 28.3-9.91L28.3-9.91Q28.3-7.62 27.36-5.66 26.42-3.71 24.73-2.27 23.05-0.83 20.72-0.01 18.38 0.81 15.6 0.81L15.6 0.81Q12.74 0.81 10.72 0.16 8.69-0.49 7.31-1.57 5.93-2.66 5.1-4.05 4.27-5.44 3.81-6.91L3.81-6.91 1.95-6.91 1.95-11.11 8.11-11.11Q8.11-8.4 8.68-7.28 9.25-6.15 10.28-5.41 11.3-4.66 12.72-4.28 14.14-3.91 15.84-3.91L15.84-3.91Q17.5-3.91 18.84-4.3 20.17-4.69 21.11-5.43 22.05-6.18 22.55-7.24 23.05-8.3 23.05-9.64L23.05-9.64Q23.05-11.13 22.42-12.17 21.8-13.21 20.83-13.94 19.85-14.67 18.69-15.14 17.53-15.6 16.46-15.94L16.46-15.94 11.11-17.46Q9.35-17.99 7.9-18.82 6.45-19.65 5.41-20.85 4.37-22.05 3.81-23.65 3.25-25.24 3.25-27.34L3.25-27.34Q3.25-29.47 4.08-31.32 4.91-33.18 6.52-34.57 8.13-35.96 10.46-36.76 12.79-37.55 15.8-37.55L15.8-37.55Q17.77-37.55 19.45-37.08 21.12-36.62 22.47-35.78 23.83-34.94 24.87-33.75 25.9-32.57 26.61-31.15L26.61-31.15 28.44-31.15 28.44-26.95 22.46-26.95ZM31.64-12.65L31.64-12.65Q31.66-15.65 32.6-18.12 33.54-20.58 35.23-22.35 36.91-24.12 39.23-25.07 41.55-26.03 44.33-26.03L44.33-26.03Q47.14-26.03 49.47-25.07 51.8-24.12 53.46-22.38 55.12-20.63 56.05-18.16 56.98-15.7 56.98-12.7L56.98-12.7Q56.98-9.74 56.05-7.26 55.12-4.79 53.46-3 51.8-1.22 49.47-0.23 47.14 0.76 44.33 0.76L44.33 0.76Q41.48 0.76 39.16-0.22 36.84-1.2 35.18-2.97 33.52-4.74 32.59-7.2 31.66-9.67 31.64-12.65ZM36.45-12.65L36.45-12.65Q36.45-10.47 37.07-8.72 37.69-6.96 38.78-5.73 39.87-4.49 41.29-3.82 42.72-3.15 44.33-3.15L44.33-3.15Q46.02-3.15 47.47-3.81 48.92-4.47 50-5.7 51.07-6.93 51.68-8.69 52.29-10.45 52.29-12.65L52.29-12.65Q52.29-14.94 51.68-16.72 51.07-18.51 50.01-19.7 48.95-20.9 47.48-21.51 46.02-22.12 44.33-22.12L44.33-22.12Q42.72-22.12 41.29-21.51 39.87-20.9 38.78-19.7 37.69-18.51 37.07-16.72 36.45-14.94 36.45-12.65ZM70.23-29.39L70.23-25.29 76.09-25.29 76.09-21.61 70.23-21.61 70.23-4.2 74.19-4.2 74.19 0 61.88 0 61.88-4.2 65.69-4.2 65.69-21.61 61.52-21.61 61.52-25.29 65.69-25.29 65.69-29.25Q65.74-31.45 66.33-33.08 66.91-34.72 67.99-35.82 69.06-36.91 70.58-37.45 72.09-37.99 73.95-37.99L73.95-37.99Q75.24-37.99 76.26-37.87 77.29-37.74 78.1-37.54 78.9-37.33 79.52-37.08 80.15-36.84 80.63-36.6L80.63-36.6 79.24-33.35Q78.46-33.76 77.2-34.06 75.95-34.35 74.58-34.35L74.58-34.35Q72.55-34.35 71.39-33.09 70.23-31.84 70.23-29.39L70.23-29.39ZM87.39-33.45L87.39-25.29 93.33-25.29 93.33-21.61 87.35-21.61 87.27-7.01Q87.27-5.52 87.61-4.59 87.96-3.66 88.71-3.31 89.47-2.95 90.42-2.95L90.42-2.95Q91.45-2.95 92.23-3.14 93.01-3.32 93.94-3.76L93.94-3.76 94.99-0.71Q93.82-0.1 92.52 0.26 91.23 0.61 89.47 0.61L89.47 0.61Q87.81 0.61 86.58 0.21 85.34-0.2 84.5-1.15 83.66-2.1 83.24-3.7 82.83-5.3 82.83-7.69L82.83-7.69 82.9-21.61 78.87-21.61 78.87-25.29 82.95-25.29 82.95-31.35 87.39-33.45ZM96.72-21.09L96.72-25.29 104.73-25.29 104.73-21.09 103.55-21.09 107.97-4.96 114.03-25.29 117.84-25.29 123.62-5 128.24-21.09 126.77-21.09 126.77-25.29 134.78-25.29 134.78-21.09 132.61-21.09 125.67 0.39 121.47 0.39 115.74-19.8 110.02 0.39 105.78 0.39 98.89-21.09 96.72-21.09ZM153.58 0L153.58-2.34Q152.14-1 150.39-0.15 148.64 0.71 146.42 0.71L146.42 0.71Q144.57 0.71 143.02 0.12 141.47-0.46 140.34-1.48 139.22-2.49 138.6-3.83 137.98-5.18 137.98-6.69L137.98-6.69Q137.98-8.3 138.45-9.55 138.93-10.79 139.72-11.71 140.51-12.62 141.58-13.24 142.64-13.87 143.8-14.25 144.96-14.62 146.17-14.78 147.38-14.94 148.47-14.94L148.47-14.94Q150.23-14.94 151.43-14.83 152.62-14.72 153.6-14.53L153.6-14.53 153.63-16.6Q153.63-17.94 153.23-18.93 152.84-19.92 152.14-20.57 151.43-21.22 150.44-21.53 149.45-21.85 148.23-21.85L148.23-21.85Q147.08-21.85 146.03-21.69 144.98-21.53 144.07-21.28 143.15-21.02 142.38-20.69 141.61-20.36 141.08-20L141.08-20 139.59-23.14Q140.49-23.73 141.56-24.23 142.64-24.73 143.82-25.09 145.01-25.44 146.24-25.65 147.47-25.85 148.67-25.85L148.67-25.85Q150.87-25.85 152.62-25.33 154.38-24.8 155.6-23.71 156.82-22.61 157.48-20.91 158.14-19.21 158.14-16.85L158.14-16.85 158.12-4.2 160.93-4.2 160.93 0 153.58 0ZM147.42-3.1L147.42-3.1Q148.33-3.1 149.23-3.32 150.13-3.54 150.94-3.92 151.75-4.3 152.43-4.8 153.11-5.3 153.58-5.83L153.58-5.83 153.6-11.55 148.33-11.55Q147.01-11.55 145.92-11.25 144.84-10.96 144.04-10.4 143.25-9.84 142.81-9.01 142.37-8.18 142.37-7.1L142.37-7.1Q142.37-6.1 142.74-5.36 143.1-4.61 143.77-4.11 144.45-3.61 145.37-3.36 146.3-3.1 147.42-3.1ZM184.24-25.44L184.24-19.95 179.6-19.95 179.6-21.51Q178.79-21.51 177.95-21.2 177.11-20.9 176.38-20.28 175.64-19.65 175.09-18.69 174.55-17.72 174.3-16.41L174.3-16.41 174.3-4.2 178.6-4.2 178.6 0 166.05 0 166.05-4.2 169.54-4.2 169.57-21.09 166.05-21.09 166.05-25.29 174.13-25.29 174.13-21.8Q174.57-22.58 175.12-23.25 175.67-23.93 176.34-24.43 177.01-24.93 177.83-25.21 178.65-25.49 179.6-25.49L179.6-25.49Q180.87-25.49 181.99-25.49 183.11-25.49 184.24-25.44L184.24-25.44ZM211.99-12.06L193.78-12.06Q193.78-10.99 193.94-10.1 194.1-9.2 194.39-8.4L194.39-8.4Q195.3-5.96 197.28-4.72 199.27-3.49 201.79-3.49L201.79-3.49Q203.77-3.49 205.63-4.04 207.5-4.59 209.55-5.76L209.55-5.76 211.38-2.66Q208.89-0.95 206.38-0.12 203.86 0.71 201.15 0.71L201.15 0.71Q198.59 0.71 196.41-0.15 194.22-1 192.65-2.69 191.07-4.37 190.18-6.88 189.29-9.4 189.29-12.74L189.29-12.74Q189.29-15.45 190.05-17.86 190.8-20.26 192.3-22.06 193.81-23.85 196.03-24.9 198.25-25.95 201.2-25.95L201.2-25.95Q204.06-25.95 205.98-25.09 207.89-24.22 209.1-22.79 210.31-21.36 210.93-19.53 211.55-17.7 211.8-15.8L211.8-15.8Q211.92-14.87 211.96-13.92 211.99-12.96 211.99-12.06L211.99-12.06ZM200.89-22.14L200.89-22.14Q199.3-22.14 198.11-21.69 196.93-21.24 196.1-20.4 195.27-19.56 194.77-18.33 194.27-17.11 194.03-15.6L194.03-15.6 207.14-15.6Q207.04-17.02 206.68-18.21 206.33-19.41 205.6-20.29 204.87-21.17 203.72-21.66 202.57-22.14 200.89-22.14ZM215.73 0Q215.73 0 215.73 0ZM230.15-32.79L230.15-37.01 245.12-37.01Q247.61-37.01 249.7-36.36 251.78-35.72 253.31-34.46 254.84-33.2 255.68-31.32 256.52-29.44 256.52-27L256.52-27Q256.52-24.98 255.69-23.18 254.86-21.39 253.35-20.04 251.83-18.7 249.72-17.92 247.61-17.14 245.02-17.14L245.02-17.14 238.45-17.14 238.45-4.2 242.17-4.2 242.17 0 230.15 0 230.15-4.2 233.67-4.2 233.67-32.79 230.15-32.79ZM244.51-32.79L238.45-32.79 238.45-21.14 245.12-21.14Q246.51-21.14 247.67-21.52 248.83-21.9 249.67-22.63 250.51-23.36 250.99-24.46 251.47-25.56 251.47-27L251.47-27Q251.47-29.74 249.81-31.26 248.15-32.79 244.51-32.79L244.51-32.79ZM278.34-25.44L278.34-19.95 273.71-19.95 273.71-21.51Q272.9-21.51 272.06-21.2 271.22-20.9 270.48-20.28 269.75-19.65 269.2-18.69 268.65-17.72 268.41-16.41L268.41-16.41 268.41-4.2 272.7-4.2 272.7 0 260.16 0 260.16-4.2 263.65-4.2 263.67-21.09 260.16-21.09 260.16-25.29 268.24-25.29 268.24-21.8Q268.68-22.58 269.23-23.25 269.77-23.93 270.45-24.43 271.12-24.93 271.94-25.21 272.75-25.49 273.71-25.49L273.71-25.49Q274.98-25.49 276.1-25.49 277.22-25.49 278.34-25.44L278.34-25.44ZM283.25-12.65L283.25-12.65Q283.27-15.65 284.21-18.12 285.15-20.58 286.84-22.35 288.52-24.12 290.84-25.07 293.16-26.03 295.94-26.03L295.94-26.03Q298.75-26.03 301.08-25.07 303.41-24.12 305.08-22.38 306.74-20.63 307.66-18.16 308.59-15.7 308.59-12.7L308.59-12.7Q308.59-9.74 307.66-7.26 306.74-4.79 305.08-3 303.41-1.22 301.08-0.23 298.75 0.76 295.94 0.76L295.94 0.76Q293.09 0.76 290.77-0.22 288.45-1.2 286.79-2.97 285.13-4.74 284.2-7.2 283.27-9.67 283.25-12.65ZM288.06-12.65L288.06-12.65Q288.06-10.47 288.68-8.72 289.3-6.96 290.39-5.73 291.48-4.49 292.9-3.82 294.33-3.15 295.94-3.15L295.94-3.15Q297.63-3.15 299.08-3.81 300.53-4.47 301.61-5.7 302.68-6.93 303.29-8.69 303.9-10.45 303.9-12.65L303.9-12.65Q303.9-14.94 303.29-16.72 302.68-18.51 301.62-19.7 300.56-20.9 299.09-21.51 297.63-22.12 295.94-22.12L295.94-22.12Q294.33-22.12 292.9-21.51 291.48-20.9 290.39-19.7 289.3-18.51 288.68-16.72 288.06-14.94 288.06-12.65ZM321.85-29.39L321.85-25.29 327.7-25.29 327.7-21.61 321.85-21.61 321.85-4.2 325.8-4.2 325.8 0 313.5 0 313.5-4.2 317.3-4.2 317.3-21.61 313.13-21.61 313.13-25.29 317.3-25.29 317.3-29.25Q317.35-31.45 317.94-33.08 318.52-34.72 319.6-35.82 320.67-36.91 322.19-37.45 323.7-37.99 325.56-37.99L325.56-37.99Q326.85-37.99 327.88-37.87 328.9-37.74 329.71-37.54 330.51-37.33 331.13-37.08 331.76-36.84 332.25-36.6L332.25-36.6 330.85-33.35Q330.07-33.76 328.82-34.06 327.56-34.35 326.19-34.35L326.19-34.35Q324.16-34.35 323-33.09 321.85-31.84 321.85-29.39L321.85-29.39ZM354.19-12.06L335.98-12.06Q335.98-10.99 336.14-10.1 336.3-9.2 336.59-8.4L336.59-8.4Q337.49-5.96 339.48-4.72 341.47-3.49 343.99-3.49L343.99-3.49Q345.96-3.49 347.83-4.04 349.7-4.59 351.75-5.76L351.75-5.76 353.58-2.66Q351.09-0.95 348.58-0.12 346.06 0.71 343.35 0.71L343.35 0.71Q340.79 0.71 338.6-0.15 336.42-1 334.84-2.69 333.27-4.37 332.38-6.88 331.49-9.4 331.49-12.74L331.49-12.74Q331.49-15.45 332.24-17.86 333-20.26 334.5-22.06 336-23.85 338.22-24.9 340.45-25.95 343.4-25.95L343.4-25.95Q346.26-25.95 348.17-25.09 350.09-24.22 351.3-22.79 352.51-21.36 353.13-19.53 353.75-17.7 354-15.8L354-15.8Q354.12-14.87 354.15-13.92 354.19-12.96 354.19-12.06L354.19-12.06ZM343.08-22.14L343.08-22.14Q341.5-22.14 340.31-21.69 339.13-21.24 338.3-20.4 337.47-19.56 336.97-18.33 336.47-17.11 336.22-15.6L336.22-15.6 349.33-15.6Q349.24-17.02 348.88-18.21 348.53-19.41 347.79-20.29 347.06-21.17 345.91-21.66 344.77-22.14 343.08-22.14ZM374.97-18.51Q374.97-19.53 374.49-20.25 374.01-20.97 373.26-21.42 372.5-21.88 371.57-22.08 370.64-22.29 369.76-22.29L369.76-22.29Q368.79-22.29 367.97-22.07 367.15-21.85 366.57-21.44 365.98-21.02 365.65-20.42 365.32-19.82 365.32-19.09L365.32-19.09Q365.32-17.82 366.09-17.08 366.86-16.33 368.67-15.7L368.67-15.7 373.52-13.99Q376.65-12.94 378.09-11.13 379.53-9.33 379.53-6.81L379.53-6.81Q379.53-5.13 378.86-3.72 378.19-2.32 376.95-1.33 375.72-0.34 373.99 0.21 372.26 0.76 370.13 0.76L370.13 0.76Q367.18 0.76 365.32-0.2 363.47-1.15 362.47-2.71L362.47-2.71 359.93-2.71 359.93-6.91 364.98-6.91Q364.98-5.86 365.43-5.11 365.88-4.37 366.63-3.91 367.37-3.44 368.31-3.22 369.25-3 370.23-3L370.23-3Q371.18-3 372.06-3.23 372.94-3.47 373.61-3.92 374.28-4.37 374.67-5 375.06-5.64 375.06-6.45L375.06-6.45Q375.06-7.67 374.27-8.52 373.48-9.38 371.57-10.06L371.57-10.06 366.74-11.87Q363.78-12.92 362.36-14.54 360.93-16.16 360.93-18.6L360.93-18.6Q360.93-20.21 361.53-21.58 362.12-22.95 363.26-23.94 364.39-24.93 366.03-25.49 367.67-26.05 369.76-26.05L369.76-26.05Q372.47-26.05 374.31-25.29 376.14-24.54 377.6-22.71L377.6-22.71 379.97-22.71 379.97-18.51 374.97-18.51ZM399.21-18.51Q399.21-19.53 398.73-20.25 398.25-20.97 397.5-21.42 396.74-21.88 395.81-22.08 394.88-22.29 394.01-22.29L394.01-22.29Q393.03-22.29 392.21-22.07 391.39-21.85 390.81-21.44 390.22-21.02 389.89-20.42 389.56-19.82 389.56-19.09L389.56-19.09Q389.56-17.82 390.33-17.08 391.1-16.33 392.91-15.7L392.91-15.7 397.77-13.99Q400.89-12.94 402.33-11.13 403.77-9.33 403.77-6.81L403.77-6.81Q403.77-5.13 403.1-3.72 402.43-2.32 401.2-1.33 399.96-0.34 398.23 0.21 396.5 0.76 394.37 0.76L394.37 0.76Q391.42 0.76 389.56-0.2 387.71-1.15 386.71-2.71L386.71-2.71 384.17-2.71 384.17-6.91 389.22-6.91Q389.22-5.86 389.67-5.11 390.12-4.37 390.87-3.91 391.61-3.44 392.55-3.22 393.49-3 394.47-3L394.47-3Q395.42-3 396.3-3.23 397.18-3.47 397.85-3.92 398.52-4.37 398.91-5 399.3-5.64 399.3-6.45L399.3-6.45Q399.3-7.67 398.51-8.52 397.72-9.38 395.81-10.06L395.81-10.06 390.98-11.87Q388.02-12.92 386.6-14.54 385.17-16.16 385.17-18.6L385.17-18.6Q385.17-20.21 385.77-21.58 386.36-22.95 387.5-23.94 388.63-24.93 390.27-25.49 391.91-26.05 394.01-26.05L394.01-26.05Q396.72-26.05 398.55-25.29 400.38-24.54 401.84-22.71L401.84-22.71 404.21-22.71 404.21-18.51 399.21-18.51ZM408.65-21.09L408.65-25.29 416.9-25.29 416.9-4.2 420.71-4.2 420.71 0 408.7 0 408.7-4.2 412.31-4.2 412.31-21.09 408.65-21.09ZM411.46-34.25L411.46-34.25Q411.46-34.89 411.72-35.46 411.97-36.04 412.4-36.46 412.83-36.89 413.41-37.15 414-37.4 414.66-37.4L414.66-37.4Q415.29-37.4 415.87-37.15 416.44-36.89 416.87-36.46 417.29-36.04 417.55-35.46 417.81-34.89 417.81-34.25L417.81-34.25Q417.81-33.59 417.55-33.01 417.29-32.42 416.87-31.97 416.44-31.52 415.87-31.26 415.29-31.01 414.66-31.01L414.66-31.01Q414-31.01 413.41-31.26 412.83-31.52 412.4-31.97 411.97-32.42 411.72-33.01 411.46-33.59 411.46-34.25ZM424.54-12.65L424.54-12.65Q424.57-15.65 425.51-18.12 426.45-20.58 428.13-22.35 429.82-24.12 432.14-25.07 434.45-26.03 437.24-26.03L437.24-26.03Q440.05-26.03 442.38-25.07 444.71-24.12 446.37-22.38 448.03-20.63 448.96-18.16 449.88-15.7 449.88-12.7L449.88-12.7Q449.88-9.74 448.96-7.26 448.03-4.79 446.37-3 444.71-1.22 442.38-0.23 440.05 0.76 437.24 0.76L437.24 0.76Q434.38 0.76 432.06-0.22 429.74-1.2 428.08-2.97 426.42-4.74 425.49-7.2 424.57-9.67 424.54-12.65ZM429.35-12.65L429.35-12.65Q429.35-10.47 429.97-8.72 430.6-6.96 431.68-5.73 432.77-4.49 434.2-3.82 435.63-3.15 437.24-3.15L437.24-3.15Q438.92-3.15 440.37-3.81 441.83-4.47 442.9-5.7 443.98-6.93 444.59-8.69 445.2-10.45 445.2-12.65L445.2-12.65Q445.2-14.94 444.59-16.72 443.98-18.51 442.91-19.7 441.85-20.9 440.39-21.51 438.92-22.12 437.24-22.12L437.24-22.12Q435.63-22.12 434.2-21.51 432.77-20.9 431.68-19.7 430.6-18.51 429.97-16.72 429.35-14.94 429.35-12.65ZM471.44 0L471.44-4.2 475-4.2 475-15.75Q475-18.65 473.53-20.15 472.05-21.66 469.29-21.66L469.29-21.66Q467.7-21.66 466.09-20.9 464.48-20.14 463.04-19.02L463.04-19.02 463.04-4.2 466.61-4.2 466.61 0 454.79 0 454.79-4.2 458.3-4.2 458.3-21.09 454.79-21.09 454.79-25.29 462.85-25.29 462.85-22.31 462.89-22.31Q463.7-23.02 464.62-23.66 465.53-24.29 466.53-24.76 467.53-25.22 468.62-25.49 469.71-25.76 470.9-25.76L470.9-25.76Q472.93-25.76 474.56-25.2 476.2-24.63 477.35-23.49 478.5-22.34 479.12-20.54 479.74-18.75 479.74-16.31L479.74-16.31 479.74-4.2 483.26-4.2 483.26 0 471.44 0ZM503 0L503-2.34Q501.56-1 499.82-0.15 498.07 0.71 495.85 0.71L495.85 0.71Q494 0.71 492.45 0.12 490.89-0.46 489.77-1.48 488.65-2.49 488.03-3.83 487.4-5.18 487.4-6.69L487.4-6.69Q487.4-8.3 487.88-9.55 488.36-10.79 489.15-11.71 489.94-12.62 491-13.24 492.07-13.87 493.23-14.25 494.39-14.62 495.59-14.78 496.8-14.94 497.9-14.94L497.9-14.94Q499.66-14.94 500.86-14.83 502.05-14.72 503.03-14.53L503.03-14.53 503.05-16.6Q503.05-17.94 502.66-18.93 502.27-19.92 501.56-20.57 500.86-21.22 499.87-21.53 498.88-21.85 497.66-21.85L497.66-21.85Q496.51-21.85 495.46-21.69 494.41-21.53 493.49-21.28 492.58-21.02 491.81-20.69 491.04-20.36 490.5-20L490.5-20 489.02-23.14Q489.92-23.73 490.99-24.23 492.07-24.73 493.25-25.09 494.43-25.44 495.67-25.65 496.9-25.85 498.1-25.85L498.1-25.85Q500.29-25.85 502.05-25.33 503.81-24.8 505.03-23.71 506.25-22.61 506.91-20.91 507.57-19.21 507.57-16.85L507.57-16.85 507.55-4.2 510.35-4.2 510.35 0 503 0ZM496.85-3.1L496.85-3.1Q497.76-3.1 498.66-3.32 499.56-3.54 500.37-3.92 501.17-4.3 501.86-4.8 502.54-5.3 503-5.83L503-5.83 503.03-11.55 497.76-11.55Q496.44-11.55 495.35-11.25 494.26-10.96 493.47-10.4 492.68-9.84 492.24-9.01 491.8-8.18 491.8-7.1L491.8-7.1Q491.8-6.1 492.16-5.36 492.53-4.61 493.2-4.11 493.87-3.61 494.8-3.36 495.73-3.1 496.85-3.1ZM515.28-33.79L515.28-37.99 523.49-37.99 523.49-4.2 527.29-4.2 527.29 0 515.28 0 515.28-4.2 518.94-4.2 518.94-33.79 515.28-33.79Z" opacity="1" transform="matrix(1,0,0,1,0,0)" fill="#000000" class="undefined-text-1" data-fill-palette-color="secondary" id="text-1"></path></svg></g></svg></g></svg></g></svg></g></svg></g></svg></g></svg></g></svg></g><defs><mask id="11436bc5-85d2-4831-a14b-1b887ec4ded8"><rect width="395.52" height="247.2" fill="white"></rect><g transform="matrix(1,0,0,1,35.99961472050296,37.08)" id="clone"><svg viewBox="0 0 323.52077055899406 173.04" height="173.04" width="323.52077055899406"><g><svg viewBox="0 0 323.52077055899406 173.04" height="173.04" width="323.52077055899406"><g><svg viewBox="0 0 395.52 211.5498818877838" height="173.04" width="323.52077055899406"><g><svg viewBox="0 0 395.52 211.5498818877838" height="211.5498818877838" width="395.52"><g id="SvgjsG1059"><svg viewBox="0 0 395.52 211.5498818877838" height="211.5498818877838" width="395.52" id="SvgjsSvg1058"><g><svg viewBox="0 0 395.52 158.8922248918789" height="158.8922248918789" width="395.52"><g transform="matrix(1,0,0,1,0,0)"><svg width="395.52" viewBox="-5.099999904632568 -34.20000076293945 105.04000091552734 42.79999923706055" height="158.8922248918789" data-palette-color="#ed2647"><path d="M28.6-13.5L28.6-13.5Q26.1-13.5 23.95-13.9L23.95-13.9Q24.65-11.7 26.9-3.95L26.9-3.95Q27.6-1.7 29.1 0.6L29.1 0.6Q31.15 3.55 32.9 3.55L32.9 3.55Q35 3.55 36.4-0.7L36.4-0.7Q36.65-1.7 36.93-1.7 37.2-1.7 37.33-1.13 37.45-0.55 37.45-0.35L37.45-0.35Q37.45 0.9 36.05 2.85L36.05 2.85Q34.2 5.6 32 5.6 29.8 5.6 27.95 3.4 26.1 1.2 24.33-4.63 22.55-10.45 22.55-12.05L22.55-12.05Q22.55-12.3 22.6-12.45L22.6-12.45Q16.6-4.5 14-1.95L14-1.95Q8.2 3.7 2.15 3.7L2.15 3.7Q-2.1 3.7-2.1 0.5L-2.1 0.5Q-2.1-1.1-1.1-3.03-0.1-4.95 1.35-6.4 2.8-7.85 3.9-7.85L3.9-7.85Q4.1-7.85 4.1-7.75L4.1-7.75Q4.1-7.5 2.85-6.5 1.6-5.5 0.45-3.68-0.7-1.85-0.7-0.35L-0.7-0.35Q-0.7 2.3 2.85 2.3L2.85 2.3Q9.5 2.3 21.15-13.3L21.15-13.3Q21.8-14.15 22.25-14.5L22.25-14.5 21.45-14.8Q20.8-14.55 20.4-14.55L20.4-14.55Q19.35-14.55 19.35-15.4L19.35-15.4Q19.35-16.55 20.9-16.9L20.9-16.9Q21.1-16.95 21.25-16.95L21.25-16.95Q22.15-16.95 23.35-16.05L23.35-16.05Q27.75-20.95 27.85-21.05L27.85-21.05Q31.5-24.8 32.77-24.8 34.05-24.8 34.05-23.7L34.05-23.7Q34.05-23.2 33.83-22.75 33.6-22.3 33.3-22.3L33.3-22.3Q33-22.2 33-22.6L33-22.6Q33-22.8 33.3-23.2L33.3-23.2Q33.35-23.9 32.85-23.9L32.85-23.9Q31.25-23.9 25.1-15.4L25.1-15.4Q26.6-15.3 27.6-15.3L27.6-15.3Q39.2-15.3 42.1-21.3L42.1-21.3Q42.7-22.6 42.7-23.7L42.7-23.7Q42.7-25.9 40.7-27.5L40.7-27.5Q37.5-30.1 30.3-30.1 23.1-30.1 15.6-26.45L15.6-26.45Q6.5-22 6.5-16L6.5-16Q6.5-14.05 8.95-14.05 11.4-14.05 14.15-15.85 16.9-17.65 17.85-19.4L17.85-19.4Q18.2-20.05 18.53-20.05 18.85-20.05 18.7-19.65L18.7-19.65Q17.75-16.85 14.48-14.88 11.2-12.9 7.65-12.9 4.1-12.9 4.1-15.15L4.1-15.15Q4.1-15.3 4.1-15.5L4.1-15.5Q4.85-22.05 12.13-26.63 19.4-31.2 29.65-31.2L29.65-31.2Q39.2-31.2 43.2-27.9L43.2-27.9Q45.6-25.9 45.6-23.2L45.6-23.2Q45.6-22.05 45.05-20.7L45.05-20.7Q43.5-17.05 38.7-15.28 33.9-13.5 28.6-13.5ZM48.45-20.4Q49.2-20.4 49.87-19.93 50.55-19.45 50.55-18.8 50.55-18.15 49.92-17.68 49.3-17.2 48.55-17.2 47.8-17.2 47.17-17.75 46.55-18.3 46.55-19L46.55-19Q46.55-20.4 48.45-20.4L48.45-20.4ZM39.4 0.55L39.4 0.55Q36.85 0.55 36.85-2.75L36.85-2.75Q36.85-5.45 39.8-10.23 42.75-15 44.55-15.05L44.55-15.05Q45.05-15.05 45.67-14.65 46.3-14.25 46.3-13.85L46.3-13.85Q46.05-13.5 45.7-13.08 45.35-12.65 44.95-12.15 44.55-11.65 43.85-10.73 43.15-9.8 42.5-8.95L42.5-8.95Q38.75-4.1 38.75-2.27 38.75-0.45 40-0.45L40-0.45Q41.05-0.45 42.85-1.6L42.85-1.6Q47.05-4.2 49.5-7.3L49.5-7.3Q50.4-8.45 50.72-8.45 51.05-8.45 51.05-8.05 51.05-7.65 49.9-6.45 48.75-5.25 48.07-4.55 47.4-3.85 47.15-3.63 46.9-3.4 46.22-2.78 45.55-2.15 45.2-1.9 44.85-1.65 44.2-1.15 43.55-0.65 43.05-0.43 42.55-0.2 41.9 0.1L41.9 0.1Q40.85 0.55 39.4 0.55ZM61.95-16.1L61.95-16.1 69.15-16.2Q69.3-16.1 69.3-16.05L69.3-16.05Q69.3-15.6 63.07-14.8 56.85-14 56.35-13.85L56.35-13.85Q55.4-13 52.85-8.78 50.3-4.55 50.3-2.6L50.3-2.6Q50.3-0.75 52.85-0.75L52.85-0.75Q54.05-0.75 56-1.5 57.95-2.25 59-2.9L59-2.9Q61.8-4.65 65-8.05L65-8.05Q65.7-8.75 65.95-8.75L65.95-8.75Q66.1-8.75 66.1-8.45 66.1-8.15 65.35-7.25L65.35-7.25Q62.75-4.05 59.5-2.1L59.5-2.1Q55.6 0.3 52.05 0.3L52.05 0.3Q50.5 0.3 49.52-0.38 48.55-1.05 48.55-3.1 48.55-5.15 50.35-8.72 52.15-12.3 53.1-14.05L53.1-14.05Q52.4-13.9 51.9-13.9L51.9-13.9Q50.45-13.9 50.45-15.05L50.45-15.05Q50.45-15.9 51.65-16.25L51.65-16.25Q51.8-16.25 52.1-16.3L52.1-16.3 55-16.3Q55.9-17.45 57.05-18.95L57.05-18.95Q58.45-20.75 58.95-20.75 59.45-20.75 60.2-20.35 60.95-19.95 60.95-19.4 60.95-18.85 58.55-16.15L58.55-16.15Q59.85-16.1 61.95-16.1ZM74.59-20.4Q75.34-20.4 76.02-19.93 76.69-19.45 76.69-18.8 76.69-18.15 76.07-17.68 75.44-17.2 74.69-17.2 73.94-17.2 73.32-17.75 72.69-18.3 72.69-19L72.69-19Q72.69-20.4 74.59-20.4L74.59-20.4ZM65.54 0.55L65.54 0.55Q62.99 0.55 62.99-2.75L62.99-2.75Q62.99-5.45 65.94-10.23 68.89-15 70.69-15.05L70.69-15.05Q71.19-15.05 71.82-14.65 72.44-14.25 72.44-13.85L72.44-13.85Q72.19-13.5 71.84-13.08 71.49-12.65 71.09-12.15 70.69-11.65 69.99-10.73 69.29-9.8 68.64-8.95L68.64-8.95Q64.89-4.1 64.89-2.27 64.89-0.45 66.14-0.45L66.14-0.45Q67.19-0.45 68.99-1.6L68.99-1.6Q73.19-4.2 75.64-7.3L75.64-7.3Q76.54-8.45 76.87-8.45 77.19-8.45 77.19-8.05 77.19-7.65 76.04-6.45 74.89-5.25 74.22-4.55 73.54-3.85 73.29-3.63 73.04-3.4 72.37-2.78 71.69-2.15 71.34-1.9 70.99-1.65 70.34-1.15 69.69-0.65 69.19-0.43 68.69-0.2 68.04 0.1L68.04 0.1Q66.99 0.55 65.54 0.55ZM85.29 0.6L85.29 0.6Q81.34 0.6 78.59-5.65L78.59-5.65Q77.89-4.6 75.44 0.25L75.44 0.25Q73.64-0.45 73.64-1.65L73.64-1.65Q73.64-3.8 80.09-13.45 86.54-23.1 88.94-24.8L88.94-24.8Q89.14-24.95 89.74-24.95L89.74-24.95Q91.29-24.95 91.29-24.15L91.29-24.15Q91.29-23.75 87.82-19.65 84.34-15.55 83.94-14.7L83.94-14.7Q88.49-17.05 91.19-17.05L91.19-17.05Q92.74-17.05 93.84-15.8L93.84-15.8Q94.89-14.75 94.89-13.65L94.89-13.65Q94.89-13.5 94.89-13.35L94.89-13.35Q94.49-10.5 90.89-8.65L90.89-8.65Q87.99-7.1 85.49-7.1 82.99-7.1 81.99-7.75L81.99-7.75Q81.69-7.8 81.52-7.6 81.34-7.4 81.44-7.1L81.44-7.1Q82.84-0.9 86.09-0.9L86.09-0.9Q87.79-0.9 90.47-2.8 93.14-4.7 96.04-8.15L96.04-8.15Q96.39-8.5 96.67-8.5 96.94-8.5 96.94-8.22 96.94-7.95 96.59-7.45L96.59-7.45Q93.89-4.15 91.49-2.25L91.49-2.25Q87.84 0.6 85.29 0.6ZM92.49-14.7L92.49-14.7Q92.49-15.1 92.04-15.5 91.59-15.9 91.09-15.9L91.09-15.9Q88.39-15.9 84.62-13.65 80.84-11.4 79.99-8.55L79.99-8.55Q80.44-8.55 82.39-8.4L82.39-8.4Q84.64-8.4 88.29-10.25L88.29-10.25Q92.49-12.35 92.49-14.7Z" opacity="1" transform="matrix(1,0,0,1,0,0)" fill="#000000" class="undefined-text-0" data-fill-palette-color="primary" id="SvgjsPath1057" stroke-width="5" stroke="black" stroke-linejoin="round"></path></svg></g></svg></g><g transform="matrix(1,0,0,1,2.5,179.30494633026427)"><svg viewBox="0 0 390.52 32.24493555751952" height="32.24493555751952" width="390.52"><g transform="matrix(1,0,0,1,0,0)"><svg width="390.52" viewBox="-1.0499999523162842 -40.9900016784668 531.3399658203125 44.80000305175781" height="32.24493555751952" data-palette-color="#ed2647"><path d="M22.46-26.95Q22.46-29.1 21.68-30.18 20.9-31.25 19.96-31.82 19.02-32.4 17.9-32.7 16.77-33.01 15.65-33.01L15.65-33.01Q13.79-33.01 12.4-32.58 11.01-32.15 10.1-31.42 9.18-30.69 8.72-29.71 8.25-28.74 8.25-27.66L8.25-27.66Q8.25-26.05 8.83-25.06 9.4-24.07 10.28-23.47 11.16-22.88 12.22-22.53 13.28-22.19 14.26-21.85L14.26-21.85 19.19-20.24Q21.41-19.53 23.11-18.63 24.8-17.72 25.95-16.49 27.1-15.26 27.7-13.65 28.3-12.04 28.3-9.91L28.3-9.91Q28.3-7.62 27.36-5.66 26.42-3.71 24.73-2.27 23.05-0.83 20.72-0.01 18.38 0.81 15.6 0.81L15.6 0.81Q12.74 0.81 10.72 0.16 8.69-0.49 7.31-1.57 5.93-2.66 5.1-4.05 4.27-5.44 3.81-6.91L3.81-6.91 1.95-6.91 1.95-11.11 8.11-11.11Q8.11-8.4 8.68-7.28 9.25-6.15 10.28-5.41 11.3-4.66 12.72-4.28 14.14-3.91 15.84-3.91L15.84-3.91Q17.5-3.91 18.84-4.3 20.17-4.69 21.11-5.43 22.05-6.18 22.55-7.24 23.05-8.3 23.05-9.64L23.05-9.64Q23.05-11.13 22.42-12.17 21.8-13.21 20.83-13.94 19.85-14.67 18.69-15.14 17.53-15.6 16.46-15.94L16.46-15.94 11.11-17.46Q9.35-17.99 7.9-18.82 6.45-19.65 5.41-20.85 4.37-22.05 3.81-23.65 3.25-25.24 3.25-27.34L3.25-27.34Q3.25-29.47 4.08-31.32 4.91-33.18 6.52-34.57 8.13-35.96 10.46-36.76 12.79-37.55 15.8-37.55L15.8-37.55Q17.77-37.55 19.45-37.08 21.12-36.62 22.47-35.78 23.83-34.94 24.87-33.75 25.9-32.57 26.61-31.15L26.61-31.15 28.44-31.15 28.44-26.95 22.46-26.95ZM31.64-12.65L31.64-12.65Q31.66-15.65 32.6-18.12 33.54-20.58 35.23-22.35 36.91-24.12 39.23-25.07 41.55-26.03 44.33-26.03L44.33-26.03Q47.14-26.03 49.47-25.07 51.8-24.12 53.46-22.38 55.12-20.63 56.05-18.16 56.98-15.7 56.98-12.7L56.98-12.7Q56.98-9.74 56.05-7.26 55.12-4.79 53.46-3 51.8-1.22 49.47-0.23 47.14 0.76 44.33 0.76L44.33 0.76Q41.48 0.76 39.16-0.22 36.84-1.2 35.18-2.97 33.52-4.74 32.59-7.2 31.66-9.67 31.64-12.65ZM36.45-12.65L36.45-12.65Q36.45-10.47 37.07-8.72 37.69-6.96 38.78-5.73 39.87-4.49 41.29-3.82 42.72-3.15 44.33-3.15L44.33-3.15Q46.02-3.15 47.47-3.81 48.92-4.47 50-5.7 51.07-6.93 51.68-8.69 52.29-10.45 52.29-12.65L52.29-12.65Q52.29-14.94 51.68-16.72 51.07-18.51 50.01-19.7 48.95-20.9 47.48-21.51 46.02-22.12 44.33-22.12L44.33-22.12Q42.72-22.12 41.29-21.51 39.87-20.9 38.78-19.7 37.69-18.51 37.07-16.72 36.45-14.94 36.45-12.65ZM70.23-29.39L70.23-25.29 76.09-25.29 76.09-21.61 70.23-21.61 70.23-4.2 74.19-4.2 74.19 0 61.88 0 61.88-4.2 65.69-4.2 65.69-21.61 61.52-21.61 61.52-25.29 65.69-25.29 65.69-29.25Q65.74-31.45 66.33-33.08 66.91-34.72 67.99-35.82 69.06-36.91 70.58-37.45 72.09-37.99 73.95-37.99L73.95-37.99Q75.24-37.99 76.26-37.87 77.29-37.74 78.1-37.54 78.9-37.33 79.52-37.08 80.15-36.84 80.63-36.6L80.63-36.6 79.24-33.35Q78.46-33.76 77.2-34.06 75.95-34.35 74.58-34.35L74.58-34.35Q72.55-34.35 71.39-33.09 70.23-31.84 70.23-29.39L70.23-29.39ZM87.39-33.45L87.39-25.29 93.33-25.29 93.33-21.61 87.35-21.61 87.27-7.01Q87.27-5.52 87.61-4.59 87.96-3.66 88.71-3.31 89.47-2.95 90.42-2.95L90.42-2.95Q91.45-2.95 92.23-3.14 93.01-3.32 93.94-3.76L93.94-3.76 94.99-0.71Q93.82-0.1 92.52 0.26 91.23 0.61 89.47 0.61L89.47 0.61Q87.81 0.61 86.58 0.21 85.34-0.2 84.5-1.15 83.66-2.1 83.24-3.7 82.83-5.3 82.83-7.69L82.83-7.69 82.9-21.61 78.87-21.61 78.87-25.29 82.95-25.29 82.95-31.35 87.39-33.45ZM96.72-21.09L96.72-25.29 104.73-25.29 104.73-21.09 103.55-21.09 107.97-4.96 114.03-25.29 117.84-25.29 123.62-5 128.24-21.09 126.77-21.09 126.77-25.29 134.78-25.29 134.78-21.09 132.61-21.09 125.67 0.39 121.47 0.39 115.74-19.8 110.02 0.39 105.78 0.39 98.89-21.09 96.72-21.09ZM153.58 0L153.58-2.34Q152.14-1 150.39-0.15 148.64 0.71 146.42 0.71L146.42 0.71Q144.57 0.71 143.02 0.12 141.47-0.46 140.34-1.48 139.22-2.49 138.6-3.83 137.98-5.18 137.98-6.69L137.98-6.69Q137.98-8.3 138.45-9.55 138.93-10.79 139.72-11.71 140.51-12.62 141.58-13.24 142.64-13.87 143.8-14.25 144.96-14.62 146.17-14.78 147.38-14.94 148.47-14.94L148.47-14.94Q150.23-14.94 151.43-14.83 152.62-14.72 153.6-14.53L153.6-14.53 153.63-16.6Q153.63-17.94 153.23-18.93 152.84-19.92 152.14-20.57 151.43-21.22 150.44-21.53 149.45-21.85 148.23-21.85L148.23-21.85Q147.08-21.85 146.03-21.69 144.98-21.53 144.07-21.28 143.15-21.02 142.38-20.69 141.61-20.36 141.08-20L141.08-20 139.59-23.14Q140.49-23.73 141.56-24.23 142.64-24.73 143.82-25.09 145.01-25.44 146.24-25.65 147.47-25.85 148.67-25.85L148.67-25.85Q150.87-25.85 152.62-25.33 154.38-24.8 155.6-23.71 156.82-22.61 157.48-20.91 158.14-19.21 158.14-16.85L158.14-16.85 158.12-4.2 160.93-4.2 160.93 0 153.58 0ZM147.42-3.1L147.42-3.1Q148.33-3.1 149.23-3.32 150.13-3.54 150.94-3.92 151.75-4.3 152.43-4.8 153.11-5.3 153.58-5.83L153.58-5.83 153.6-11.55 148.33-11.55Q147.01-11.55 145.92-11.25 144.84-10.96 144.04-10.4 143.25-9.84 142.81-9.01 142.37-8.18 142.37-7.1L142.37-7.1Q142.37-6.1 142.74-5.36 143.1-4.61 143.77-4.11 144.45-3.61 145.37-3.36 146.3-3.1 147.42-3.1ZM184.24-25.44L184.24-19.95 179.6-19.95 179.6-21.51Q178.79-21.51 177.95-21.2 177.11-20.9 176.38-20.28 175.64-19.65 175.09-18.69 174.55-17.72 174.3-16.41L174.3-16.41 174.3-4.2 178.6-4.2 178.6 0 166.05 0 166.05-4.2 169.54-4.2 169.57-21.09 166.05-21.09 166.05-25.29 174.13-25.29 174.13-21.8Q174.57-22.58 175.12-23.25 175.67-23.93 176.34-24.43 177.01-24.93 177.83-25.21 178.65-25.49 179.6-25.49L179.6-25.49Q180.87-25.49 181.99-25.49 183.11-25.49 184.24-25.44L184.24-25.44ZM211.99-12.06L193.78-12.06Q193.78-10.99 193.94-10.1 194.1-9.2 194.39-8.4L194.39-8.4Q195.3-5.96 197.28-4.72 199.27-3.49 201.79-3.49L201.79-3.49Q203.77-3.49 205.63-4.04 207.5-4.59 209.55-5.76L209.55-5.76 211.38-2.66Q208.89-0.95 206.38-0.12 203.86 0.71 201.15 0.71L201.15 0.71Q198.59 0.71 196.41-0.15 194.22-1 192.65-2.69 191.07-4.37 190.18-6.88 189.29-9.4 189.29-12.74L189.29-12.74Q189.29-15.45 190.05-17.86 190.8-20.26 192.3-22.06 193.81-23.85 196.03-24.9 198.25-25.95 201.2-25.95L201.2-25.95Q204.06-25.95 205.98-25.09 207.89-24.22 209.1-22.79 210.31-21.36 210.93-19.53 211.55-17.7 211.8-15.8L211.8-15.8Q211.92-14.87 211.96-13.92 211.99-12.96 211.99-12.06L211.99-12.06ZM200.89-22.14L200.89-22.14Q199.3-22.14 198.11-21.69 196.93-21.24 196.1-20.4 195.27-19.56 194.77-18.33 194.27-17.11 194.03-15.6L194.03-15.6 207.14-15.6Q207.04-17.02 206.68-18.21 206.33-19.41 205.6-20.29 204.87-21.17 203.72-21.66 202.57-22.14 200.89-22.14ZM215.73 0Q215.73 0 215.73 0ZM230.15-32.79L230.15-37.01 245.12-37.01Q247.61-37.01 249.7-36.36 251.78-35.72 253.31-34.46 254.84-33.2 255.68-31.32 256.52-29.44 256.52-27L256.52-27Q256.52-24.98 255.69-23.18 254.86-21.39 253.35-20.04 251.83-18.7 249.72-17.92 247.61-17.14 245.02-17.14L245.02-17.14 238.45-17.14 238.45-4.2 242.17-4.2 242.17 0 230.15 0 230.15-4.2 233.67-4.2 233.67-32.79 230.15-32.79ZM244.51-32.79L238.45-32.79 238.45-21.14 245.12-21.14Q246.51-21.14 247.67-21.52 248.83-21.9 249.67-22.63 250.51-23.36 250.99-24.46 251.47-25.56 251.47-27L251.47-27Q251.47-29.74 249.81-31.26 248.15-32.79 244.51-32.79L244.51-32.79ZM278.34-25.44L278.34-19.95 273.71-19.95 273.71-21.51Q272.9-21.51 272.06-21.2 271.22-20.9 270.48-20.28 269.75-19.65 269.2-18.69 268.65-17.72 268.41-16.41L268.41-16.41 268.41-4.2 272.7-4.2 272.7 0 260.16 0 260.16-4.2 263.65-4.2 263.67-21.09 260.16-21.09 260.16-25.29 268.24-25.29 268.24-21.8Q268.68-22.58 269.23-23.25 269.77-23.93 270.45-24.43 271.12-24.93 271.94-25.21 272.75-25.49 273.71-25.49L273.71-25.49Q274.98-25.49 276.1-25.49 277.22-25.49 278.34-25.44L278.34-25.44ZM283.25-12.65L283.25-12.65Q283.27-15.65 284.21-18.12 285.15-20.58 286.84-22.35 288.52-24.12 290.84-25.07 293.16-26.03 295.94-26.03L295.94-26.03Q298.75-26.03 301.08-25.07 303.41-24.12 305.08-22.38 306.74-20.63 307.66-18.16 308.59-15.7 308.59-12.7L308.59-12.7Q308.59-9.74 307.66-7.26 306.74-4.79 305.08-3 303.41-1.22 301.08-0.23 298.75 0.76 295.94 0.76L295.94 0.76Q293.09 0.76 290.77-0.22 288.45-1.2 286.79-2.97 285.13-4.74 284.2-7.2 283.27-9.67 283.25-12.65ZM288.06-12.65L288.06-12.65Q288.06-10.47 288.68-8.72 289.3-6.96 290.39-5.73 291.48-4.49 292.9-3.82 294.33-3.15 295.94-3.15L295.94-3.15Q297.63-3.15 299.08-3.81 300.53-4.47 301.61-5.7 302.68-6.93 303.29-8.69 303.9-10.45 303.9-12.65L303.9-12.65Q303.9-14.94 303.29-16.72 302.68-18.51 301.62-19.7 300.56-20.9 299.09-21.51 297.63-22.12 295.94-22.12L295.94-22.12Q294.33-22.12 292.9-21.51 291.48-20.9 290.39-19.7 289.3-18.51 288.68-16.72 288.06-14.94 288.06-12.65ZM321.85-29.39L321.85-25.29 327.7-25.29 327.7-21.61 321.85-21.61 321.85-4.2 325.8-4.2 325.8 0 313.5 0 313.5-4.2 317.3-4.2 317.3-21.61 313.13-21.61 313.13-25.29 317.3-25.29 317.3-29.25Q317.35-31.45 317.94-33.08 318.52-34.72 319.6-35.82 320.67-36.91 322.19-37.45 323.7-37.99 325.56-37.99L325.56-37.99Q326.85-37.99 327.88-37.87 328.9-37.74 329.71-37.54 330.51-37.33 331.13-37.08 331.76-36.84 332.25-36.6L332.25-36.6 330.85-33.35Q330.07-33.76 328.82-34.06 327.56-34.35 326.19-34.35L326.19-34.35Q324.16-34.35 323-33.09 321.85-31.84 321.85-29.39L321.85-29.39ZM354.19-12.06L335.98-12.06Q335.98-10.99 336.14-10.1 336.3-9.2 336.59-8.4L336.59-8.4Q337.49-5.96 339.48-4.72 341.47-3.49 343.99-3.49L343.99-3.49Q345.96-3.49 347.83-4.04 349.7-4.59 351.75-5.76L351.75-5.76 353.58-2.66Q351.09-0.95 348.58-0.12 346.06 0.71 343.35 0.71L343.35 0.71Q340.79 0.71 338.6-0.15 336.42-1 334.84-2.69 333.27-4.37 332.38-6.88 331.49-9.4 331.49-12.74L331.49-12.74Q331.49-15.45 332.24-17.86 333-20.26 334.5-22.06 336-23.85 338.22-24.9 340.45-25.95 343.4-25.95L343.4-25.95Q346.26-25.95 348.17-25.09 350.09-24.22 351.3-22.79 352.51-21.36 353.13-19.53 353.75-17.7 354-15.8L354-15.8Q354.12-14.87 354.15-13.92 354.19-12.96 354.19-12.06L354.19-12.06ZM343.08-22.14L343.08-22.14Q341.5-22.14 340.31-21.69 339.13-21.24 338.3-20.4 337.47-19.56 336.97-18.33 336.47-17.11 336.22-15.6L336.22-15.6 349.33-15.6Q349.24-17.02 348.88-18.21 348.53-19.41 347.79-20.29 347.06-21.17 345.91-21.66 344.77-22.14 343.08-22.14ZM374.97-18.51Q374.97-19.53 374.49-20.25 374.01-20.97 373.26-21.42 372.5-21.88 371.57-22.08 370.64-22.29 369.76-22.29L369.76-22.29Q368.79-22.29 367.97-22.07 367.15-21.85 366.57-21.44 365.98-21.02 365.65-20.42 365.32-19.82 365.32-19.09L365.32-19.09Q365.32-17.82 366.09-17.08 366.86-16.33 368.67-15.7L368.67-15.7 373.52-13.99Q376.65-12.94 378.09-11.13 379.53-9.33 379.53-6.81L379.53-6.81Q379.53-5.13 378.86-3.72 378.19-2.32 376.95-1.33 375.72-0.34 373.99 0.21 372.26 0.76 370.13 0.76L370.13 0.76Q367.18 0.76 365.32-0.2 363.47-1.15 362.47-2.71L362.47-2.71 359.93-2.71 359.93-6.91 364.98-6.91Q364.98-5.86 365.43-5.11 365.88-4.37 366.63-3.91 367.37-3.44 368.31-3.22 369.25-3 370.23-3L370.23-3Q371.18-3 372.06-3.23 372.94-3.47 373.61-3.92 374.28-4.37 374.67-5 375.06-5.64 375.06-6.45L375.06-6.45Q375.06-7.67 374.27-8.52 373.48-9.38 371.57-10.06L371.57-10.06 366.74-11.87Q363.78-12.92 362.36-14.54 360.93-16.16 360.93-18.6L360.93-18.6Q360.93-20.21 361.53-21.58 362.12-22.95 363.26-23.94 364.39-24.93 366.03-25.49 367.67-26.05 369.76-26.05L369.76-26.05Q372.47-26.05 374.31-25.29 376.14-24.54 377.6-22.71L377.6-22.71 379.97-22.71 379.97-18.51 374.97-18.51ZM399.21-18.51Q399.21-19.53 398.73-20.25 398.25-20.97 397.5-21.42 396.74-21.88 395.81-22.08 394.88-22.29 394.01-22.29L394.01-22.29Q393.03-22.29 392.21-22.07 391.39-21.85 390.81-21.44 390.22-21.02 389.89-20.42 389.56-19.82 389.56-19.09L389.56-19.09Q389.56-17.82 390.33-17.08 391.1-16.33 392.91-15.7L392.91-15.7 397.77-13.99Q400.89-12.94 402.33-11.13 403.77-9.33 403.77-6.81L403.77-6.81Q403.77-5.13 403.1-3.72 402.43-2.32 401.2-1.33 399.96-0.34 398.23 0.21 396.5 0.76 394.37 0.76L394.37 0.76Q391.42 0.76 389.56-0.2 387.71-1.15 386.71-2.71L386.71-2.71 384.17-2.71 384.17-6.91 389.22-6.91Q389.22-5.86 389.67-5.11 390.12-4.37 390.87-3.91 391.61-3.44 392.55-3.22 393.49-3 394.47-3L394.47-3Q395.42-3 396.3-3.23 397.18-3.47 397.85-3.92 398.52-4.37 398.91-5 399.3-5.64 399.3-6.45L399.3-6.45Q399.3-7.67 398.51-8.52 397.72-9.38 395.81-10.06L395.81-10.06 390.98-11.87Q388.02-12.92 386.6-14.54 385.17-16.16 385.17-18.6L385.17-18.6Q385.17-20.21 385.77-21.58 386.36-22.95 387.5-23.94 388.63-24.93 390.27-25.49 391.91-26.05 394.01-26.05L394.01-26.05Q396.72-26.05 398.55-25.29 400.38-24.54 401.84-22.71L401.84-22.71 404.21-22.71 404.21-18.51 399.21-18.51ZM408.65-21.09L408.65-25.29 416.9-25.29 416.9-4.2 420.71-4.2 420.71 0 408.7 0 408.7-4.2 412.31-4.2 412.31-21.09 408.65-21.09ZM411.46-34.25L411.46-34.25Q411.46-34.89 411.72-35.46 411.97-36.04 412.4-36.46 412.83-36.89 413.41-37.15 414-37.4 414.66-37.4L414.66-37.4Q415.29-37.4 415.87-37.15 416.44-36.89 416.87-36.46 417.29-36.04 417.55-35.46 417.81-34.89 417.81-34.25L417.81-34.25Q417.81-33.59 417.55-33.01 417.29-32.42 416.87-31.97 416.44-31.52 415.87-31.26 415.29-31.01 414.66-31.01L414.66-31.01Q414-31.01 413.41-31.26 412.83-31.52 412.4-31.97 411.97-32.42 411.72-33.01 411.46-33.59 411.46-34.25ZM424.54-12.65L424.54-12.65Q424.57-15.65 425.51-18.12 426.45-20.58 428.13-22.35 429.82-24.12 432.14-25.07 434.45-26.03 437.24-26.03L437.24-26.03Q440.05-26.03 442.38-25.07 444.71-24.12 446.37-22.38 448.03-20.63 448.96-18.16 449.88-15.7 449.88-12.7L449.88-12.7Q449.88-9.74 448.96-7.26 448.03-4.79 446.37-3 444.71-1.22 442.38-0.23 440.05 0.76 437.24 0.76L437.24 0.76Q434.38 0.76 432.06-0.22 429.74-1.2 428.08-2.97 426.42-4.74 425.49-7.2 424.57-9.67 424.54-12.65ZM429.35-12.65L429.35-12.65Q429.35-10.47 429.97-8.72 430.6-6.96 431.68-5.73 432.77-4.49 434.2-3.82 435.63-3.15 437.24-3.15L437.24-3.15Q438.92-3.15 440.37-3.81 441.83-4.47 442.9-5.7 443.98-6.93 444.59-8.69 445.2-10.45 445.2-12.65L445.2-12.65Q445.2-14.94 444.59-16.72 443.98-18.51 442.91-19.7 441.85-20.9 440.39-21.51 438.92-22.12 437.24-22.12L437.24-22.12Q435.63-22.12 434.2-21.51 432.77-20.9 431.68-19.7 430.6-18.51 429.97-16.72 429.35-14.94 429.35-12.65ZM471.44 0L471.44-4.2 475-4.2 475-15.75Q475-18.65 473.53-20.15 472.05-21.66 469.29-21.66L469.29-21.66Q467.7-21.66 466.09-20.9 464.48-20.14 463.04-19.02L463.04-19.02 463.04-4.2 466.61-4.2 466.61 0 454.79 0 454.79-4.2 458.3-4.2 458.3-21.09 454.79-21.09 454.79-25.29 462.85-25.29 462.85-22.31 462.89-22.31Q463.7-23.02 464.62-23.66 465.53-24.29 466.53-24.76 467.53-25.22 468.62-25.49 469.71-25.76 470.9-25.76L470.9-25.76Q472.93-25.76 474.56-25.2 476.2-24.63 477.35-23.49 478.5-22.34 479.12-20.54 479.74-18.75 479.74-16.31L479.74-16.31 479.74-4.2 483.26-4.2 483.26 0 471.44 0ZM503 0L503-2.34Q501.56-1 499.82-0.15 498.07 0.71 495.85 0.71L495.85 0.71Q494 0.71 492.45 0.12 490.89-0.46 489.77-1.48 488.65-2.49 488.03-3.83 487.4-5.18 487.4-6.69L487.4-6.69Q487.4-8.3 487.88-9.55 488.36-10.79 489.15-11.71 489.94-12.62 491-13.24 492.07-13.87 493.23-14.25 494.39-14.62 495.59-14.78 496.8-14.94 497.9-14.94L497.9-14.94Q499.66-14.94 500.86-14.83 502.05-14.72 503.03-14.53L503.03-14.53 503.05-16.6Q503.05-17.94 502.66-18.93 502.27-19.92 501.56-20.57 500.86-21.22 499.87-21.53 498.88-21.85 497.66-21.85L497.66-21.85Q496.51-21.85 495.46-21.69 494.41-21.53 493.49-21.28 492.58-21.02 491.81-20.69 491.04-20.36 490.5-20L490.5-20 489.02-23.14Q489.92-23.73 490.99-24.23 492.07-24.73 493.25-25.09 494.43-25.44 495.67-25.65 496.9-25.85 498.1-25.85L498.1-25.85Q500.29-25.85 502.05-25.33 503.81-24.8 505.03-23.71 506.25-22.61 506.91-20.91 507.57-19.21 507.57-16.85L507.57-16.85 507.55-4.2 510.35-4.2 510.35 0 503 0ZM496.85-3.1L496.85-3.1Q497.76-3.1 498.66-3.32 499.56-3.54 500.37-3.92 501.17-4.3 501.86-4.8 502.54-5.3 503-5.83L503-5.83 503.03-11.55 497.76-11.55Q496.44-11.55 495.35-11.25 494.26-10.96 493.47-10.4 492.68-9.84 492.24-9.01 491.8-8.18 491.8-7.1L491.8-7.1Q491.8-6.1 492.16-5.36 492.53-4.61 493.2-4.11 493.87-3.61 494.8-3.36 495.73-3.1 496.85-3.1ZM515.28-33.79L515.28-37.99 523.49-37.99 523.49-4.2 527.29-4.2 527.29 0 515.28 0 515.28-4.2 518.94-4.2 518.94-33.79 515.28-33.79Z" opacity="1" transform="matrix(1,0,0,1,0,0)" fill="#000000" class="undefined-text-1" data-fill-palette-color="secondary" id="SvgjsPath1056" stroke-width="5" stroke="black" stroke-linejoin="round"></path></svg></g></svg></g></svg></g></svg></g></svg></g></svg></g></svg></g></mask></defs></svg><rect width="395.52" height="247.2" fill="none" stroke="none" visibility="hidden"></rect></g></svg></g></svg>